 <svg xmlns="http://www.w3.org/2000/svg" width="55" height="55" viewBox="0 0 55 55" fill="none" className="absolute z-0 top-6 -rotate-6 left-4">
                    <path d="M52.3875 41.9031H55V26.1938H52.3875V28.8234H49.7578V31.4359H52.3875V41.9031ZM49.7578 41.9031H52.3875V44.5328H49.7578V41.9031ZM47.1453 44.5328H49.7578V47.1453H47.1453V44.5328ZM47.1453 36.6781H49.7578V39.2906H47.1453V36.6781ZM41.9031 39.2906H47.1453V41.9031H41.9031V39.2906ZM41.9031 47.1453H47.1453V49.775H41.9031V47.1453ZM39.2906 31.4359H49.7578V34.0484H39.2906V31.4359ZM47.1453 7.85469H49.7578V5.24219H52.3875V2.62969H49.7578V0H47.1453V2.62969H44.5328V0H41.9031V2.62969H39.2906V5.24219H41.9031V7.85469H44.5328V10.4844H47.1453V7.85469ZM36.6609 41.9031H41.9031V44.5328H36.6609V41.9031ZM31.4359 49.775H41.9031V52.3875H31.4359V49.775ZM34.0484 34.0484H39.2906V36.6781H34.0484V34.0484Z" fill="#2DD4BF" />
                    <path d="M23.5813 34.0484V36.6781H15.7094V39.2906H23.5813V55H26.1938V47.1453H28.8063V49.775H31.4359V47.1453H36.6609V44.5328H28.8063V41.9031H26.1938V36.6781H28.8063V23.5812H26.1938V34.0484H23.5813Z" fill="#2DD4BF" />
                    <path d="M31.4359 36.6781H34.0484V39.2906H31.4359V36.6781ZM39.2906 28.8234V26.1937H41.9031V23.5813H44.5328V20.9516H47.1453V15.7266H44.5328V13.0969H39.2906V15.7266H36.6609V13.0969H31.4359V15.7266H28.8062V20.9516H31.4359V23.5813H34.0484V26.1937H36.6609V28.8234H39.2906ZM28.8062 39.2906H31.4359V41.9031H28.8062V39.2906ZM23.5812 20.9516H26.1937V23.5813H23.5812V20.9516ZM20.9516 28.8234H23.5812V34.0484H20.9516V28.8234ZM20.9516 18.3391H23.5812V20.9516H20.9516V18.3391ZM18.3391 26.1937H20.9516V28.8234H18.3391V26.1937ZM13.0969 23.5813H18.3391V26.1937H13.0969V23.5813ZM15.7094 15.7266H20.9516V18.3391H15.7094V15.7266ZM10.4844 34.0484H15.7094V36.6781H10.4844V34.0484ZM10.4844 20.9516H13.0969V23.5813H10.4844V20.9516ZM7.85468 31.4359H10.4844V34.0484H7.85468V31.4359ZM7.85468 18.3391H10.4844V20.9516H7.85468V18.3391ZM7.85468 13.0969H15.7094V15.7266H7.85468V13.0969ZM5.24218 26.1937H7.85468V31.4359H5.24218V26.1937ZM5.24218 10.4844H7.85468V13.0969H5.24218V10.4844ZM2.61249 20.9516H5.24218V26.1937H2.61249V20.9516Z" fill="#2DD4BF" />
                    <path d="M2.6125 10.4844H5.24219V7.85468H0V20.9515H2.6125V10.4844Z" fill="#2DD4BF" />
                </svg>
                