<svg xmlns="http://www.w3.org/2000/svg" width="20" height="20" viewBox="0 0 24 24" fill="none" >
                    <g clipPath="url(#clip0_33_124)">
                        <path d="M22.2825 13.71H23.43V22.8525H22.2825V13.71ZM22.2825 8.0025H23.43V9.1425H22.2825V8.0025ZM21.1425 9.1425H22.2825V10.2825H21.1425V9.1425ZM21.1425 6.855H22.2825V8.0025H21.1425V6.855ZM3.9975 22.8525H22.2825V24H3.9975V22.8525ZM19.995 10.2825H21.1425V11.43H19.995V10.2825ZM19.995 5.715H21.1425V6.855H19.995V5.715ZM21.1425 14.8575H15.4275V21.7125H21.1425V14.8575ZM19.995 20.5725H16.5675V15.9975H19.995V20.5725Z" fill="#60A5FA" />
                        <path d="M18.855 12.57H17.715V11.43H18.855V10.2825H19.995V9.1425H21.1425V8.0025H19.995V6.855H18.855V5.715H17.715V4.5675H16.5675V5.715H15.4275V6.855H14.2875V8.0025H13.14V9.1425H14.2875V10.2825H15.4275V11.43H16.5675V12.57H13.14V11.43H12V10.2825H10.8525V11.43H9.7125V12.57H8.5725V11.43H7.425V12.57H2.8575V14.8575H3.9975V13.71H22.2825V12.57H19.995V11.43H18.855V12.57Z" fill="#60A5FA" />
                        <path d="M18.855 4.5675H19.995V5.715H18.855V4.5675ZM17.715 3.4275H18.855V4.5675H17.715V3.4275ZM16.5675 2.2875H17.715V3.4275H16.5675V2.2875ZM15.4275 3.4275H16.5675V4.5675H15.4275V3.4275ZM14.2875 4.5675H15.4275V5.715H14.2875V4.5675ZM13.14 5.715H14.2875V6.855H13.14V5.715ZM14.2875 14.8575H8.57251V21.7125H14.2875V14.8575ZM13.14 20.5725H9.71251V15.9975H13.14V20.5725ZM10.8525 9.1425H12V8.0025H13.14V6.855H12V1.14H10.8525V9.1425ZM9.71251 9.1425H10.8525V10.2825H9.71251V9.1425ZM8.57251 10.2825H9.71251V11.43H8.57251V10.2825ZM2.85751 9.1425V11.43H3.99751V10.2825H8.57251V9.1425H2.85751ZM6.28501 17.145H7.42501V19.425H6.28501V17.145ZM3.99751 15.9975H6.28501V17.145H3.99751V15.9975ZM3.99751 19.425H6.28501V20.5725H3.99751V19.425ZM9.71251 8.0025V2.2875H2.85751V8.0025H9.71251ZM3.99751 3.4275H8.57251V6.855H3.99751V3.4275ZM2.85751 21.7125H3.99751V22.8525H2.85751V21.7125ZM2.85751 17.145H3.99751V19.425H2.85751V17.145ZM1.71001 0H10.8525V1.14H1.71001V0ZM1.71001 20.5725H2.85751V21.7125H1.71001V20.5725ZM1.71001 15.9975H2.85751V14.8575H1.71001V1.14H0.570007V20.5725H1.71001V15.9975Z" fill="#60A5FA" />
                    </g>
                    <defs>
                        <clipPath id="clip0_33_124">
                            <rect width="24" height="24" fill="white" />
                        </clipPath>
                    </defs>
                </svg>