<svg xmlns="http://www.w3.org/2000/svg" width="20" height="20" viewBox="0 0 24 24" fill="none">
                    <path d="M1.71001 12.5737H22.2825V20.5687H23.43V10.2862H22.2825V11.4262H19.995V10.2862H18.855V11.4262H5.13751V10.2862H3.99751V11.4262H1.71001V10.2862H0.570007V20.5687H1.71001V12.5737ZM21.1425 9.13875H22.2825V10.2862H21.1425V9.13875ZM14.28 20.5687H22.2825V21.7162H14.28V20.5687ZM19.995 7.99875H21.1425V9.13875H19.995V7.99875Z" fill="#FB923C" />
                    <path d="M13.14 13.7138V17.1413H14.28V18.2813H15.4275V19.4288H21.1425V13.7138H13.14ZM19.995 18.2813H18.855V17.1413H17.715V16.0013H16.5675V14.8538H19.995V18.2813ZM18.855 6.85875H19.995V7.99875H18.855V6.85875ZM17.715 9.13875H18.855V10.2863H17.715V9.13875ZM17.715 5.71125H18.855V6.85875H17.715V5.71125ZM16.5675 7.99875H17.715V9.13875H16.5675V7.99875ZM16.5675 4.57125H17.715V5.71125H16.5675V4.57125ZM15.4275 6.85875H16.5675V7.99875H15.4275V6.85875ZM15.4275 3.43125H16.5675V4.57125H15.4275V3.43125ZM14.28 5.71125H15.4275V6.85875H14.28V5.71125ZM14.28 2.28375H15.4275V3.43125H14.28V2.28375ZM13.14 19.4288H14.28V20.5688H13.14V19.4288ZM13.14 3.43125H14.28V5.71125H13.14V3.43125ZM10.8525 18.2813H13.14V19.4288H10.8525V18.2813ZM9.71252 19.4288H10.8525V20.5688H9.71252V19.4288ZM9.71252 3.43125H10.8525V5.71125H9.71252V3.43125ZM2.85752 13.7138V19.4288H8.57252V18.2813H9.71252V17.1413H10.8525V13.7138H2.85752ZM7.42502 16.0013H6.28502V17.1413H5.13752V18.2813H3.99752V14.8538H7.42502V16.0013ZM8.57252 5.71125H9.71252V6.85875H8.57252V5.71125ZM8.57252 2.28375H9.71252V3.43125H8.57252V2.28375ZM1.71002 20.5688H9.71252V21.7163H1.71002V20.5688ZM7.42502 6.85875H8.57252V7.99875H7.42502V6.85875ZM7.42502 3.43125H8.57252V4.57125H7.42502V3.43125ZM6.28502 7.99875H7.42502V9.13875H6.28502V7.99875ZM6.28502 4.57125H7.42502V5.71125H6.28502V4.57125ZM5.13752 9.13875H6.28502V10.2863H5.13752V9.13875ZM5.13752 5.71125H6.28502V6.85875H5.13752V5.71125ZM3.99752 6.85875H5.13752V7.99875H3.99752V6.85875ZM2.85752 7.99875H3.99752V9.13875H2.85752V7.99875ZM1.71002 9.13875H2.85752V10.2863H1.71002V9.13875Z" fill="#FB923C" />
                </svg>