<svg xmlns="http://www.w3.org/2000/svg" width="20" height="20" viewBox="0 0 24 24" fill="none" >
                    <path d="M21.7162 11.43H22.8562V18.285H21.7162V11.43ZM20.5762 18.285H21.7162V19.4325H20.5762V18.285ZM20.5762 10.29H21.7162V11.43H20.5762V10.29ZM19.4287 12.57H20.5762V17.145H19.4287V12.57Z" fill="#FB7185" />
                    <path d="M20.5763 20.5725V19.4325H18.2888V18.285H19.4288V17.145H18.2888V12.57H19.4288V11.43H18.2888V10.29H20.5763V9.1425H18.2888V8.0025H17.1488V20.5725H20.5763ZM14.8613 20.5725H17.1488V21.7125H14.8613V20.5725ZM12.5738 21.7125H14.8613V22.86H12.5738V21.7125ZM14.8613 3.4275V2.2875H13.7138V1.14H12.5738V2.2875H11.4338V3.4275H14.8613ZM11.4338 15.9975H12.5738V17.145H11.4338V15.9975ZM11.4338 13.7175H12.5738V14.8575H11.4338V13.7175ZM6.85876 22.86H12.5738V24H6.85876V22.86ZM8.00626 17.145H11.4338V18.285H8.00626V17.145Z" fill="#FB7185" />
                    <path d="M8.00626 9.1425H5.71876V10.29H13.7138V9.1425H16.0013V8.00251H17.1488V6.85501H16.0013V3.42751H14.8613V4.57501H11.4338V3.42751H10.2863V5.71501H8.00626V9.1425ZM13.7138 5.71501H14.8613V8.00251H13.7138V5.71501ZM11.4338 5.71501H12.5738V9.1425H11.4338V5.71501ZM6.85876 15.9975H8.00626V17.145H6.85876V15.9975ZM6.85876 13.7175H8.00626V14.8575H6.85876V13.7175ZM6.85876 3.42751H8.00626V5.71501H6.85876V3.42751ZM4.57126 21.7125H6.85876V22.86H4.57126V21.7125Z" fill="#FB7185" />
                    <path d="M6.85876 8.0025V6.855H4.57126V8.0025H3.43126V9.1425H5.71876V8.0025H6.85876ZM5.71876 1.14H6.85876V3.4275H5.71876V1.14ZM3.43126 0H5.71876V1.14H3.43126V0ZM2.29126 20.5725H4.57126V21.7125H2.29126V20.5725ZM2.29126 1.14H3.43126V2.2875H2.29126V1.14Z" fill="#FB7185" />
                    <path d="M2.29124 8.00251H3.43124V5.71501H4.57124V4.57501H2.29124V6.85501H1.14374V20.5725H2.29124V8.00251ZM1.14374 2.28751H2.29124V4.57501H1.14374V2.28751Z" fill="#FB7185" />
                </svg>