<svg xmlns="http://www.w3.org/2000/svg" width="50" height="50" viewBox="0 0 50 50" fill="none">
                    <path d="M43.1698 30.0756L47.0737 29.2597L47.8896 33.1636L43.9857 33.9795L43.1698 30.0756ZM42.0402 34.3861L43.9857 33.9795L44.3924 35.925L42.4468 36.3316L42.0402 34.3861ZM41.538 22.2679L40.3155 16.4185L42.2738 16.0092L41.0513 10.1599L35.202 11.3824L36.4245 17.2318L38.37 16.8251L39.5925 22.6745L41.538 22.2679ZM40.5013 36.7382L42.4468 36.3316L42.8561 38.2899L40.9106 38.6965L40.5013 36.7382ZM37.647 23.0811L39.5925 22.6745L40.0018 24.6329L38.0563 25.0395L37.647 23.0811ZM38.9523 39.1058L40.9106 38.6965L41.7238 42.5876L39.7655 42.9969L38.9523 39.1058ZM36.0979 25.4488L38.0563 25.0395L38.4629 26.985L36.5046 27.3943L36.0979 25.4488ZM34.559 27.8009L36.5046 27.3943L36.9138 29.3526L34.9683 29.7592L34.559 27.8009ZM33.01 30.1685L34.9683 29.7592L37.82 43.4035L35.8616 43.8128L33.01 30.1685ZM33.7431 23.897L30.4822 8.29443L32.4277 7.88782L31.2052 2.03844L25.3558 3.26096L26.5784 9.11033L28.5239 8.70372L31.7848 24.3063L33.7431 23.897ZM27.7107 4.81267L29.669 4.40338L30.0756 6.34891L28.1173 6.7582L27.7107 4.81267ZM29.8393 24.7129L31.7848 24.3063L32.1941 26.2647L30.2486 26.6713L29.8393 24.7129ZM28.303 27.0779L30.2486 26.6713L33.9161 44.2194L31.9706 44.626L28.303 27.0779ZM21.625 24.3992L23.5833 23.9899L28.0667 45.4419L30.0123 45.0353L25.5288 23.5833L27.4871 23.174L26.2646 17.3247L20.4024 18.5498L21.625 24.3992ZM20.4953 28.7097L22.4409 28.3031L26.1084 45.8512L24.1629 46.2578L20.4953 28.7097ZM18.1405 27.158L20.0861 26.7514L20.4953 28.7097L18.5498 29.1163L18.1405 27.158ZM18.2206 37.3205L20.1789 36.9112L22.2174 46.6644L20.259 47.0737L18.2206 37.3205ZM16.1048 17.4175L18.0503 17.0109L16.8251 11.1488L10.9757 12.3713L12.2009 18.2334L14.1465 17.8268L16.1822 27.5673L18.1405 27.158L16.1048 17.4175ZM15.8685 35.7816L17.814 35.375L18.2206 37.3205L16.2751 37.7271L15.8685 35.7816ZM15.5548 43.9959L17.5003 43.5893L18.3135 47.4803L16.368 47.8869L15.5548 43.9959ZM13.5163 34.2427L15.4619 33.836L15.8685 35.7816L13.923 36.1882L13.5163 34.2427ZM15.0526 31.8777L13.8301 26.0283L7.98068 27.2509L9.2032 33.1002L11.1487 32.6936L11.558 34.652L13.5163 34.2427L13.107 32.2843L15.0526 31.8777ZM10.7421 30.7481L10.3328 28.7898L12.2911 28.3805L12.7004 30.3388L10.7421 30.7481ZM13.1871 42.4469L15.1455 42.0376L15.5548 43.9959L13.5964 44.4052L13.1871 42.4469ZM10.835 40.9079L12.7805 40.5013L13.1871 42.4469L11.2416 42.8535L10.835 40.9079ZM6.11525 37.82L10.0191 37.0041L10.835 40.9079L6.93115 41.7238L6.11525 37.82Z" fill="#2DD4BF" />
                </svg>