<svg xmlns="http://www.w3.org/2000/svg" width="73" height="66" viewBox="0 0 73 66" fill="none" >
                    <path d="M10.0384 41.4958L63.0291 27.297L68.5471 47.8905L71.5028 47.0985L64.406 20.6128L61.4503 21.4048L62.2371 24.3412L56.345 25.92L55.5581 22.9836L52.6217 23.7704L53.4085 26.7068L18.075 36.1744L17.2882 33.238L14.3518 34.0248L15.1386 36.9612L9.24642 38.54L8.45961 35.6036L5.52319 36.3904L12.62 62.8761L15.5564 62.0893L10.0384 41.4958ZM57.7219 19.2359L60.6583 18.4491L61.4503 21.4048L58.5139 22.1916L57.7219 19.2359ZM47.9343 53.4137L68.5471 47.8905L69.3391 50.8462L48.7262 56.3694L47.9343 53.4137ZM53.9794 17.0915L56.9351 16.2995L57.7219 19.2359L54.7662 20.0279L53.9794 17.0915Z" fill="#2DD4BF" />
                    <path d="M40.2666 36.5434L42.6322 45.372L45.5687 44.5851L46.3555 47.5216L49.3112 46.7296L50.1032 49.6853L64.8239 45.7409L60.8795 31.0202L40.2666 36.5434ZM61.0762 43.5772L58.1398 44.364L57.353 41.4276L54.4165 42.2144L53.6297 39.278L50.674 40.0699L49.882 37.1142L58.7106 34.7486L61.0762 43.5772ZM50.2561 14.9419L53.1926 14.1551L53.9794 17.0915L51.0429 17.8783L50.2561 14.9419ZM48.8933 21.6015L51.8298 20.8147L52.6217 23.7704L49.6853 24.5572L48.8933 21.6015ZM46.5277 12.7729L49.4641 11.9861L50.2561 14.9419L47.3197 15.7287L46.5277 12.7729ZM45.1508 19.4571L48.1065 18.6651L48.8933 21.6015L45.9376 22.3935L45.1508 19.4571ZM42.7852 10.6285L45.7409 9.83653L46.5277 12.7729L43.572 13.5649L42.7852 10.6285ZM41.4276 17.3075L44.364 16.5207L45.1508 19.4571L42.2144 20.2439L41.4276 17.3075ZM39.062 8.47892L41.9984 7.69211L42.7852 10.6285L39.8488 11.4153L39.062 8.47892ZM37.6799 15.1437L40.6356 14.3517L41.4276 17.3075L38.4718 18.0995L37.6799 15.1437ZM35.3143 6.31517L38.27 5.52318L39.062 8.47892L36.1062 9.2709L35.3143 6.31517ZM44.211 51.2641L47.1475 50.4773L47.9343 53.4137L44.9979 54.2005L44.211 51.2641ZM33.1698 10.0577L36.1062 9.2709L37.6799 15.1437L34.7434 15.9305L33.1698 10.0577ZM37.5269 49.8872L43.4191 48.3084L44.211 51.2641L38.3189 52.8429L37.5269 49.8872ZM35.3825 53.6297L38.3189 52.8429L39.1057 55.7793L36.1693 56.5661L35.3825 53.6297ZM24.3413 12.4233L27.2777 11.6365L28.8513 17.5093L25.9149 18.2961L24.3413 12.4233ZM13.781 43.6402L17.7254 58.3609L32.4461 54.4165L31.6541 51.4608L34.5905 50.674L33.8037 47.7376L36.7401 46.9508L34.3745 38.1222L13.781 43.6402ZM27.1247 46.3799L24.1883 47.1668L24.9751 50.1032L22.0194 50.8952L22.8062 53.8316L19.8698 54.6184L17.5042 45.7898L26.3327 43.4242L27.1247 46.3799ZM22.9785 19.083L25.9149 18.2961L26.7069 21.2519L23.7705 22.0387L22.9785 19.083ZM20.6129 10.2544L23.5493 9.46759L24.3413 12.4233L21.4048 13.2101L20.6129 10.2544ZM15.5564 62.0893L36.1693 56.5661L36.9613 59.5219L16.3484 65.0451L15.5564 62.0893ZM20.8147 22.8307L23.7705 22.0387L24.5573 24.9751L21.6015 25.7671L20.8147 22.8307ZM18.4491 14.0021L21.4048 13.2101L22.1917 16.1465L19.2359 16.9385L18.4491 14.0021ZM18.6651 26.5539L21.6015 25.7671L22.3883 28.7035L19.4519 29.4903L18.6651 26.5539ZM16.2995 17.7253L19.2359 16.9385L20.0227 19.8749L17.0863 20.6618L16.2995 17.7253ZM16.4962 30.2823L19.4519 29.4903L20.2439 32.446L17.2882 33.238L16.4962 30.2823ZM14.1306 21.4537L17.0863 20.6618L17.8783 23.6175L14.9226 24.4095L14.1306 21.4537ZM11.9862 25.1963L14.9226 24.4095L15.7094 27.3459L12.773 28.1327L11.9862 25.1963ZM9.83655 28.9195L12.773 28.1327L13.5598 31.0691L10.6234 31.8559L9.83655 28.9195ZM7.66763 32.6479L10.6234 31.8559L11.4153 34.8117L8.45962 35.6036L7.66763 32.6479Z" fill="#2DD4BF" />
                </svg>