<svg width="57" height="57" viewBox="0 0 57 57" fill="none" xmlns="http://www.w3.org/2000/svg">
<mask id="mask0_111_8" style="mask-type:luminance" maskUnits="userSpaceOnUse" x="0" y="0" width="57" height="57">
<path d="M0 0H56.2305V57H0V0Z" fill="white"/>
</mask>
<g mask="url(#mask0_111_8)">
<path fill-rule="evenodd" clip-rule="evenodd" d="M51.2656 44.5508H56.25V28.4531C56.25 12.8164 43.4258 0.03125 27.6484 0.03125C14.543 0.03125 3.5625 8.76953 0.148438 20.8203H9.65234C12.6055 13.832 19.6211 8.95312 27.6484 8.95312C38.5352 8.95312 47.3008 17.6875 47.3008 28.4531V44.5508H51.2656ZM17.4062 28.4531C17.4062 34.1562 22.0195 38.7578 27.6484 38.7578C33.3672 38.7578 37.9805 34.1562 37.9805 28.4531C37.9805 22.8438 33.3672 18.2422 27.6484 18.2422C22.0195 18.2422 17.4062 22.8438 17.4062 28.4531ZM0.148438 36.1797C3.5625 48.1406 14.543 56.9688 27.6484 56.9688C33.2734 56.9688 38.4414 55.4063 42.8711 52.6445V40.8711C39.2695 45.2891 33.7383 48.0508 27.6484 48.0508C19.6211 48.0508 12.6055 43.1719 9.65234 36.1797H0.148438ZM47.3008 56.9688H56.25V48.0508H47.3008V56.9688Z" fill="#E11D48"/>
</g>
</svg>
